<svg id="Layer_1" enable-background="new 0 0 256 256" height="512" viewBox="0 0 256 256" width="512" xmlns="http://www.w3.org/2000/svg"><circle cx="128" cy="128" fill="#382b73" r="120"/><circle cx="128" cy="128" fill="#473080" r="102.5"/><path d="m185.25 82.763c0-13.772-11.165-24.937-24.937-24.937-7.204 0-13.694 3.054-18.246 7.939h-57.189c-2.314 0-4.19 1.876-4.19 4.19v129.603c0 2.314 1.876 4.19 4.19 4.19h86.243c2.314 0 4.19-1.876 4.19-4.19v-96.872c6.037-4.551 9.939-11.781 9.939-19.923z" fill="#382b73"/><path d="m171.122 196.748h-86.244c-2.314 0-4.19-1.876-4.19-4.19v-123.603c0-2.314 1.876-4.19 4.19-4.19h86.243c2.314 0 4.19 1.876 4.19 4.19v123.603c0 2.314-1.875 4.19-4.189 4.19z" fill="#d1d3d4"/><path d="m171.122 190.748h-86.244c-2.314 0-4.19-1.876-4.19-4.19v-123.603c0-2.314 1.876-4.19 4.19-4.19h86.243c2.314 0 4.19 1.876 4.19 4.19v123.603c0 2.314-1.875 4.19-4.189 4.19z" fill="#fff"/><g fill="#d1d3d4"><path d="m133.074 111.054h-38.239c-1.657 0-3-1.343-3-3s1.343-3 3-3h38.238c1.657 0 3 1.343 3 3 .001 1.657-1.343 3-2.999 3z"/><path d="m123.074 75.472h-28.239c-1.657 0-3-1.343-3-3s1.343-3 3-3h28.238c1.657 0 3 1.343 3 3 .001 1.657-1.343 3-2.999 3z"/><path d="m123.074 87.52h-28.239c-1.657 0-3-1.343-3-3s1.343-3 3-3h28.238c1.657 0 3 1.343 3 3 .001 1.658-1.343 3-2.999 3z"/><path d="m163.074 126.067h-68.239c-1.657 0-3-1.343-3-3s1.343-3 3-3h68.238c1.657 0 3 1.343 3 3 .001 1.658-1.343 3-2.999 3z"/><path d="m163.074 141.081h-68.239c-1.657 0-3-1.343-3-3s1.343-3 3-3h68.238c1.657 0 3 1.343 3 3s-1.343 3-2.999 3z"/><path d="m163.074 156.095h-68.239c-1.657 0-3-1.343-3-3s1.343-3 3-3h68.238c1.657 0 3 1.343 3 3s-1.343 3-2.999 3z"/><path d="m163.074 171.109h-68.239c-1.657 0-3-1.343-3-3s1.343-3 3-3h68.238c1.657 0 3 1.343 3 3 .001 1.657-1.343 3-2.999 3z"/><path d="m146.604 109.255c.02.044.041.087.064.129-.022-.042-.044-.085-.064-.129zm1.696 1.221c.046.005.092.009.139.012-.046-.003-.093-.006-.139-.012z"/><path d="m147.582 114.133c-.088.038-.176.07-.266.096.089-.025.178-.057.266-.096z"/><path d="m171.122 58.765h-22.559c-7.839 4.199-13.171 12.468-13.171 21.982 0 12.671 9.161 19.307 9.093 19.25v16.689c0 2.029 2.42 3.081 3.904 1.696l13.687-12.776c4.95-.346 9.502-2.137 13.236-4.955v-37.696c0-1.187-.494-2.259-1.287-3.021-.506-.334-1.025-.65-1.557-.948-.423-.143-.875-.221-1.346-.221z"/></g><circle cx="160.313" cy="75.747" fill="#ef5a9d" r="24.921"/><path d="m160.313 96.222c-13.014 0-23.699-9.976-24.823-22.698-.065.732-.098 1.474-.098 2.223 0 13.764 11.158 24.921 24.921 24.921 13.764 0 24.921-11.158 24.921-24.921 0-.749-.033-1.491-.098-2.223-1.124 12.722-11.809 22.698-24.823 22.698z" fill="#e43d91"/><path d="m160.313 100.669c-6.011 0-11.524-2.128-15.829-5.671v16.689c0 2.029 2.421 3.081 3.904 1.696l13.688-12.776c-.583.041-1.17.062-1.763.062z" fill="#ef5a9d"/><path d="m158.013 100.564-9.624 8.983c-1.483 1.384-3.904.333-3.904-1.696v3.836c0 2.029 2.421 3.081 3.904 1.696l13.688-12.776c-.582.041-1.17.062-1.763.062-.777 0-1.544-.036-2.301-.105z" fill="#e43d91"/><path d="m159.371 64.358h2.19c.932 0 1.688-.756 1.688-1.688v-1.501-.584-.215c0-.932-.756-1.688-1.688-1.688h-2.19c-.932 0-1.688.756-1.688 1.688v.215.584 1.501c0 .932.755 1.688 1.688 1.688z" fill="#e43d91"/><path d="m165.878 86.093c-.137-.639-.636-1.155-1.295-1.296-.778-.167-1.334-.854-1.334-1.65v-12.164-1.501c0-.932-.756-1.688-1.688-1.688h-5.164c-.887 0-1.613.685-1.681 1.554-.004.04-.007.084-.007.134v.273 1.501c0 .809.574 1.505 1.369 1.658l.236.045c.795.153 1.369.848 1.369 1.657v8.529c0 .797-.557 1.485-1.337 1.651l-.014.003c-.743.158-1.283.791-1.332 1.54-.003.033-.005.069-.005.11v.281 1.501c0 .932.756 1.688 1.688 1.688h7.547c.932 0 1.688-.756 1.688-1.688v-1.501-.283-.097c-.001-.123-.014-.205-.04-.257z" fill="#e43d91"/><path d="m156.332 84.799.014-.003c.779-.166 1.337-.854 1.337-1.651v-10.03c0-.809-.574-1.505-1.369-1.657l-.236-.045c-.795-.153-1.369-.848-1.369-1.657v-1.776c0-.932.756-.187 1.688-.187h5.164c.932 0 1.688.756 1.688 1.688v13.665c0 .796.556 1.484 1.334 1.65.778.167 1.334-.744 1.334.052v1.881c0 .932-.756 1.688-1.688 1.688h-7.547c-.932 0-1.688-.756-1.688-1.688v-1.783c.001-.795.558.018 1.338-.147zm5.229-21.942h-2.19c-.932 0-1.688-.756-1.688-1.688v-2.085c0-.932.756-.401 1.688-.401h2.19c.932 0 1.688-.531 1.688.401v2.085c0 .932-.756 1.688-1.688 1.688z" fill="#e7ad27"/><path d="m156.332 83.297.014-.003c.779-.166 1.337-.854 1.337-1.651v-10.03c0-.809-.574-1.505-1.369-1.657l-.236-.045c-.795-.153-1.369-.848-1.369-1.657v-.274c0-.932.756-1.688 1.688-1.688h5.164c.932 0 1.688.756 1.688 1.688v13.665c0 .796.556 1.484 1.334 1.65.778.167 1.334.854 1.334 1.65v.283c0 .932-.756 1.688-1.688 1.688h-7.547c-.932 0-1.688-.756-1.688-1.688v-.281c.001-.796.558-1.484 1.338-1.65zm5.229-21.941h-2.19c-.932 0-1.688-.756-1.688-1.688v-.799c0-.932.756-1.688 1.688-1.688h2.19c.932 0 1.688.756 1.688 1.688v.799c0 .932-.756 1.688-1.688 1.688z" fill="#fede3a"/></svg>