<svg height="512" viewBox="0 0 64 64" width="512" xmlns="http://www.w3.org/2000/svg"><path d="m48 21a1 1 0 0 1 -1-1 15 15 0 0 0 -30 0 1 1 0 0 1 -2 0 17 17 0 0 1 34 0 1 1 0 0 1 -1 1z" fill="#a1d51c"/><path d="m20 16h24v24h-24z" fill="#57b7eb"/><path d="m25 18v-2h-5v24h24v-10h-7a12 12 0 0 1 -12-12z" fill="#4891d3"/><path d="m28 31h8v4h-8z" fill="#2d72bc"/><path d="m14 19h6a0 0 0 0 1 0 0v10a0 0 0 0 1 0 0h-6a2 2 0 0 1 -2-2v-6a2 2 0 0 1 2-2z" fill="#f9e109"/><path d="m14 40h36a2 2 0 0 1 2 2v19a0 0 0 0 1 0 0h-40a0 0 0 0 1 0 0v-19a2 2 0 0 1 2-2z" fill="#57b7eb"/><path d="m19 42v-2h-5a2 2 0 0 0 -2 2v19h40v-4h-18a15 15 0 0 1 -15-15z" fill="#4891d3"/><path d="m10 21.5h2a0 0 0 0 1 0 0v5a0 0 0 0 1 0 0h-2a2 2 0 0 1 -2-2v-1a2 2 0 0 1 2-2z" fill="#c4f236"/><path d="m52 45h4a4 4 0 0 1 4 4v12a0 0 0 0 1 0 0h-8a0 0 0 0 1 0 0v-16a0 0 0 0 1 0 0z" fill="#f9e109"/><path d="m44 44h4v4h-4z" fill="#f9e109"/><path d="m44 48h4v4h-4z" fill="#fcbc04"/><path d="m44 52h4v4h-4z" fill="#e59730"/><path d="m16 44h6v4h-6z" fill="#f9e109"/><path d="m38 53a6.5 6.5 0 0 0 -.1-1.09l2-1.18-2-3.46-2 1.17a6.19 6.19 0 0 0 -1.9-1.09v-2.35h-4v2.35a6.19 6.19 0 0 0 -1.9 1.09l-2-1.17-2 3.46 2 1.18a6 6 0 0 0 0 2.18l-2 1.18 2 3.46 2-1.17a6.19 6.19 0 0 0 1.9 1.09v2.35h4v-2.35a6.19 6.19 0 0 0 1.9-1.09l2 1.17 2-3.46-2-1.18a6.5 6.5 0 0 0 .1-1.09zm-6 2a2 2 0 1 1 2-2 2 2 0 0 1 -2 2z" fill="#c4f236"/><path d="m37 57a11 11 0 0 1 -10.92-9.73l-2 3.46 2 1.18a6 6 0 0 0 0 2.18l-2 1.18 2 3.46 2-1.17a6.19 6.19 0 0 0 1.92 1.09v2.35h4v-2.35a6.19 6.19 0 0 0 1.9-1.09l2 1.17 1.1-1.93a10.53 10.53 0 0 1 -2 .2z" fill="#a1d51c"/><path d="m23 12h18v4h-18z" fill="#a1d51c"/><path d="m16 48h4.26a14.91 14.91 0 0 1 -1.11-4h-3.15z" fill="#fcbc04"/><path d="m35.9 57.56 2 1.17 1-1.73h-4.9a14.88 14.88 0 0 1 -8.43-2.6l-1.5.87 2 3.46 2-1.17a6.19 6.19 0 0 0 1.93 1.09v2.35h4v-2.35a6.19 6.19 0 0 0 1.9-1.09z" fill="#7ab92d"/><path d="m26 12h15a0 0 0 0 1 0 0v2a0 0 0 0 1 0 0h-13a2 2 0 0 1 -2-2 0 0 0 0 1 0 0z" fill="#c4f236"/><path d="m11 22v-.5h1v5h-2a2 2 0 0 1 -2-2v-.5h1a2 2 0 0 0 2-2z" fill="#a1d51c"/><g fill="#fcbc04"><path d="m17 22v-3h3v10h-6a2 2 0 0 1 -2-2v-1h1a4 4 0 0 0 4-4z"/><path d="m54 53v-8h-2v16h8v-2a6 6 0 0 1 -6-6z"/><path d="m52 49h8v4h-8z"/><path d="m52 57h8v4h-8z"/></g><path d="m52 49h2v4h-2z" fill="#e59730"/><path d="m52 61h8v-2a6 6 0 0 1 -4.46-2h-3.54z" fill="#e59730"/><path d="m4 45h8a0 0 0 0 1 0 0v12a4 4 0 0 1 -4 4h-4a0 0 0 0 1 0 0v-16a0 0 0 0 1 0 0z" fill="#f9e109" transform="matrix(-1 0 0 -1 16 106)"/><path d="m10 53v-8h2v16h-8v-2a6 6 0 0 0 6-6z" fill="#fcbc04"/><path d="m4 49h8v4h-8z" fill="#fcbc04" transform="matrix(-1 0 0 -1 16 102)"/><path d="m4 57h8v4h-8z" fill="#fcbc04" transform="matrix(-1 0 0 -1 16 118)"/><path d="m10 49h2v4h-2z" fill="#e59730"/><path d="m12 61h-8v-2a6 6 0 0 0 4.46-2h3.54z" fill="#e59730"/><path d="m39 24h-4a1 1 0 0 1 0-2h4a1 1 0 0 1 0 2z" fill="#f9e109"/><path d="m29 24h-4a1 1 0 0 1 0-2h4a1 1 0 0 1 0 2z" fill="#f9e109"/><path d="m46 35h-6a1 1 0 0 1 0-2h6a1 1 0 0 0 1-1v-4a1 1 0 0 1 2 0v4a3 3 0 0 1 -3 3z" fill="#a1d51c"/><path d="m20 53h-3a1 1 0 0 1 0-2h3a1 1 0 0 1 0 2z" fill="#a1d51c"/><path d="m44 19h6a2 2 0 0 1 2 2v6a2 2 0 0 1 -2 2h-6a0 0 0 0 1 0 0v-10a0 0 0 0 1 0 0z" fill="#f9e109"/><path d="m52 21.5h2a2 2 0 0 1 2 2v1a2 2 0 0 1 -2 2h-2a0 0 0 0 1 0 0v-5a0 0 0 0 1 0 0z" fill="#c4f236"/><path d="m53 22v-.5h-1v5h2a2 2 0 0 0 2-2v-.5h-1a2 2 0 0 1 -2-2z" fill="#a1d51c"/><path d="m47 22v-3h-3v10h6a2 2 0 0 0 2-2v-1h-1a4 4 0 0 1 -4-4z" fill="#fcbc04"/></svg>